# xmcd
# 
# Track frame offsets:
#     150
#     31608
#     54925
#     58780
#     94383
#     99405
#     139830
#     168554
#     204496
#     214663
#     243363
#     266091
# 
# Disc length: 4180
# 
# Revision: 1
# Processed by: cddbd v1.5.2PL0 Copyright (c) Steve Scherf et al.
# Submitted via: BonkEnc v1.0.6
# 
DISCID=a710520c
DTITLE=Ferenc Nemeth - Night Songs
DYEAR=2005
DGENRE=Contemporary Jazz
TTITLE0=War...
TTITLE1=A Night
TTITLE2=Intro To Vera
TTITLE3=Vera
TTITLE4=Intro To E.S.P.
TTITLE5=E.S.P.
TTITLE6=New Song
TTITLE7=Ballad For The Stars
TTITLE8=Theme To L.L.
TTITLE9=L.L.
TTITLE10=Raindance
TTITLE11=Lullaby
EXTD=
EXTT0=
EXTT1=
EXTT2=
EXTT3=
EXTT4=
EXTT5=
EXTT6=
EXTT7=
EXTT8=
EXTT9=
EXTT10=
EXTT11=
PLAYORDER=
